<svg width="420" height="140" viewBox="0 0 420 140" fill="none" xmlns="http://www.w3.org/2000/svg">
  <defs>
    <linearGradient id="iconGradient" x1="56" y1="28" x2="132" y2="112" gradientUnits="userSpaceOnUse">
      <stop stop-color="#60A5FA"/>
      <stop offset="0.52" stop-color="#2563EB"/>
      <stop offset="1" stop-color="#1E3A8A"/>
    </linearGradient>
    <linearGradient id="textGradient" x1="170" y1="78" x2="390" y2="114" gradientUnits="userSpaceOnUse">
      <stop stop-color="#2563EB"/>
      <stop offset="1" stop-color="#60A5FA"/>
    </linearGradient>
    <filter id="softGlow" x="14" y="8" width="150" height="124" filterUnits="userSpaceOnUse" color-interpolation-filters="sRGB">
      <feFlood flood-opacity="0" result="BackgroundImageFix"/>
      <feGaussianBlur in="BackgroundImageFix" stdDeviation="0"/>
      <feComposite in2="SourceAlpha" operator="in" result="effect1_backgroundBlur_1_2"/>
      <feDropShadow dx="0" dy="10" stdDeviation="14" flood-color="#2563EB" flood-opacity="0.22"/>
      <feBlend mode="normal" in="SourceGraphic" in2="effect1_backgroundBlur_1_2" result="shape"/>
    </filter>
  </defs>
  <g filter="url(#softGlow)">
    <path d="M86 36C76 24 55 27 47 43C38 62 56 80 86 107C116 80 134 62 125 43C117 27 96 24 86 36Z" fill="url(#iconGradient)"/>
    <path d="M51 86C65 78 81 76 98 78C116 80 130 74 141 61C138 83 126 99 105 105C84 111 66 107 48 119C47 107 48 96 51 86Z" fill="url(#iconGradient)" opacity="0.88"/>
    <path d="M55 43C61 34 73 33 82 42" stroke="#93C5FD" stroke-width="6" stroke-linecap="round" opacity="0.8"/>
    <path d="M74 67C80 71 88 71 96 67" stroke="#BFDBFE" stroke-width="6" stroke-linecap="round" opacity="0.7"/>
  </g>
  <text x="170" y="61" fill="#0F172A" font-family="Inter, Arial, sans-serif" font-size="46" font-weight="900" letter-spacing="1">TDB</text>
  <text x="170" y="111" fill="url(#textGradient)" font-family="Inter, Arial, sans-serif" font-size="48" font-weight="800">Responde</text>
</svg>
